<svg width="38" height="38" viewBox="0 0 38 38" fill="none" xmlns="http://www.w3.org/2000/svg">
<circle cx="19" cy="19" r="18.5" fill="#010306" stroke="black"/>
<path d="M25.3855 19.6305C25.3754 17.8143 26.2133 16.4435 27.9094 15.4339C26.9604 14.1027 25.5268 13.3703 23.6339 13.2268C21.8419 13.0882 19.8834 14.2512 19.1666 14.2512C18.4094 14.2512 16.673 13.2762 15.31 13.2762C12.4934 13.3208 9.5 15.4785 9.5 19.8681C9.5 21.1647 9.7423 22.5041 10.2269 23.8865C10.873 25.7027 13.2051 30.1567 15.6382 30.0824C16.9102 30.0527 17.8087 29.1966 19.4644 29.1966C21.0696 29.1966 21.9025 30.0824 23.3209 30.0824C25.7742 30.0478 27.8842 25.9996 28.5 24.1785C25.2088 22.6592 25.3855 19.7245 25.3855 19.6305ZM22.5284 11.5046C23.9065 9.90115 23.7803 8.44125 23.7399 7.91667C22.5234 7.98596 21.115 8.72828 20.3124 9.64381C19.4291 10.6237 18.9091 11.8361 19.0202 13.202C20.3377 13.301 21.5391 12.6378 22.5284 11.5046Z" fill="#F1F1F1"/>
</svg>
