<svg width="48" height="48" viewBox="0 0 48 48" fill="none" xmlns="http://www.w3.org/2000/svg">
<path d="M13.0781 14C12.4807 14 12 14.4777 12 15.0714V32.9286C12 33.5223 12.4807 34 13.0781 34H13.7969C14.3943 34 14.875 33.5223 14.875 32.9286V15.0714C14.875 14.4777 14.3943 14 13.7969 14H13.0781ZM17.0312 14C16.6359 14 16.3125 14.3214 16.3125 14.7143V33.2857C16.3125 33.6786 16.6359 34 17.0312 34C17.4266 34 17.75 33.6786 17.75 33.2857V14.7143C17.75 14.3214 17.4266 14 17.0312 14ZM20.2656 14C19.6682 14 19.1875 14.4777 19.1875 15.0714V32.9286C19.1875 33.5223 19.6682 34 20.2656 34H20.9844C21.5818 34 22.0625 33.5223 22.0625 32.9286V15.0714C22.0625 14.4777 21.5818 14 20.9844 14H20.2656ZM24.5781 14C23.9807 14 23.5 14.4777 23.5 15.0714V32.9286C23.5 33.5223 23.9807 34 24.5781 34H25.2969C25.8943 34 26.375 33.5223 26.375 32.9286V15.0714C26.375 14.4777 25.8943 14 25.2969 14H24.5781ZM32.125 15.0714V32.9286C32.125 33.5223 32.6057 34 33.2031 34H33.9219C34.5193 34 35 33.5223 35 32.9286V15.0714C35 14.4777 34.5193 14 33.9219 14H33.2031C32.6057 14 32.125 14.4777 32.125 15.0714ZM29.25 14.7143V33.2857C29.25 33.6786 29.5734 34 29.9688 34C30.3641 34 30.6875 33.6786 30.6875 33.2857V14.7143C30.6875 14.3214 30.3641 14 29.9688 14C29.5734 14 29.25 14.3214 29.25 14.7143Z" fill="#010306"/>
</svg>
