<svg width="48" height="48" viewBox="0 0 48 48" fill="none" xmlns="http://www.w3.org/2000/svg">
<path d="M36.1 9.27273V9.77273H36.6H38.4C40.1498 9.77273 41.5 11.0654 41.5 12.5455V38.7273C41.5 40.2074 40.1498 41.5 38.4 41.5H9.6C7.85023 41.5 6.5 40.2074 6.5 38.7273V12.5455C6.5 11.0654 7.85023 9.77273 9.6 9.77273H11.4H11.9V9.27273V6.5H14.5V9.27273V9.77273H15H33H33.5V9.27273V6.5H36.1V9.27273ZM38.4 39.2273H38.9V38.7273V17.4545V16.9545H38.4H9.6H9.1V17.4545V38.7273V39.2273H9.6H38.4Z" stroke="#010306"/>
</svg>
