<svg width="30" height="30" viewBox="0 0 30 30" fill="none" xmlns="http://www.w3.org/2000/svg">
<path d="M13.3945 1.03102C10.6113 1.24782 7.64648 2.22633 5.4668 3.63844C2.54883 5.53688 0.720703 8.05055 0.140625 10.9685C-0.046875 11.9177 -0.046875 13.5173 0.140625 14.4548C0.761719 17.5252 2.75977 20.1853 5.84766 22.0369C6.20508 22.2537 6.52148 22.4412 6.54492 22.447C6.56836 22.4588 6.65039 23.7361 6.73242 25.2888C6.86719 28.0896 6.87305 28.1189 7.00781 28.2654C7.27148 28.5466 7.41211 28.4939 9.16992 27.5095C10.0605 27.0115 11.6426 26.1267 12.6855 25.5466L14.5781 24.4861H14.9707C16.8223 24.4802 19.2012 24.0994 20.8652 23.531C25.6992 21.8845 28.9922 18.5447 29.8125 14.4548C29.9824 13.5935 30 11.9236 29.8418 11.0974C29.3496 8.56032 27.9199 6.28102 25.7227 4.52907C23.291 2.58961 20.3672 1.44118 16.9395 1.07789C16.1953 1.00172 14.1504 0.972425 13.3945 1.03102ZM17.584 2.33766C21.0996 2.87672 24.0469 4.31227 26.1504 6.52126C27.4688 7.89821 28.3242 9.50368 28.6699 11.2263C28.8223 12.0056 28.8105 13.5466 28.6406 14.3318C28.0723 16.9568 26.3027 19.3006 23.6309 20.9646C22.4883 21.6736 20.8301 22.365 19.4004 22.7283C17.9414 23.0974 16.9688 23.2322 15.2988 23.2966L14.2441 23.3318L11.2031 25.031C9.5332 25.9627 8.12109 26.742 8.06836 26.7537C7.98047 26.7771 7.95703 26.5603 7.86328 24.4158C7.79297 22.9158 7.72852 21.99 7.68164 21.8787C7.62305 21.7322 7.45312 21.6091 6.85547 21.2693C3.80859 19.5408 1.93359 17.1912 1.3125 14.3318C1.20703 13.8513 1.18359 13.5408 1.18359 12.7381C1.18359 11.2498 1.41211 10.283 2.08594 8.92946C3.7793 5.53102 7.75195 2.99391 12.3984 2.34352C13.6172 2.16774 13.5703 2.1736 15.2402 2.19118C16.4414 2.20289 16.9395 2.23805 17.584 2.33766Z" fill="black"/>
</svg>
