<svg width="20" height="20" viewBox="0 0 20 20" fill="none" xmlns="http://www.w3.org/2000/svg">
<path d="M10.7337 17.1536C12.7728 15.2154 15.8333 10.5181 15.8333 7.87956C15.8333 4.67955 14.0049 2.08331 9.79167 2.08331C5.5784 2.08331 3.75 4.67955 3.75 7.87956C3.75 10.5181 6.81058 15.2154 8.84964 17.1536C9.33854 17.6155 10.2448 17.6155 10.7337 17.1536ZM9.79167 10.2947C8.38857 10.2947 7.24781 8.94523 7.24781 7.87956C7.24781 6.8139 8.38857 5.78647 9.79167 5.78647C11.1948 5.78647 12.3355 6.8139 12.3355 7.87956C12.3355 8.94523 11.1948 10.2947 9.79167 10.2947Z" fill="#010306"/>
<path d="M8.5 8L9.5 9L11 7" stroke="#010306" stroke-width="0.5" stroke-linecap="round"/>
</svg>
