<svg width="48" height="48" viewBox="0 0 48 48" fill="none" xmlns="http://www.w3.org/2000/svg">
<g clip-path="url(#clip0_2_213)">
<path d="M9.06115 11.2589C8.50865 10.8425 7.70646 10.9389 7.27084 11.4671C6.83521 11.9952 6.93615 12.762 7.48865 13.1784L38.9387 36.7409C39.4912 37.1573 40.2933 37.0608 40.729 36.5327C41.1646 36.0046 41.0637 35.2378 40.5112 34.8214L34.9224 30.637C37.0262 28.5753 38.4499 26.2647 39.1671 24.6245C39.3424 24.2233 39.3424 23.7764 39.1671 23.3753C38.3755 21.5624 36.7127 18.9217 34.2265 16.7178C31.7296 14.4936 28.2924 12.6249 23.9999 12.6249C20.3768 12.6249 17.3593 13.9604 15.0058 15.7124L9.06115 11.2589ZM18.8521 18.5917C20.2068 17.4085 22.0183 16.6874 23.9999 16.6874C28.2233 16.6874 31.6499 19.9628 31.6499 23.9999C31.6499 25.2643 31.3152 26.4526 30.7255 27.4885L28.6749 25.955C28.9512 25.3557 29.0999 24.6956 29.0999 23.9999C29.0999 21.3085 26.8155 19.1249 23.9999 19.1249C23.8512 19.1249 23.7024 19.13 23.5537 19.1452C23.8352 19.6175 23.9999 20.1659 23.9999 20.7499C23.9999 21.2678 23.8724 21.7553 23.6493 22.187L18.8521 18.5917ZM30.7043 33.7245L26.8155 30.7995C25.9443 31.1296 24.9933 31.3124 23.9999 31.3124C19.7765 31.3124 16.3499 28.037 16.3499 23.9999C16.3499 23.6495 16.3765 23.3092 16.4243 22.9741L11.4146 19.201C10.2033 20.7092 9.3374 22.2124 8.83271 23.3753C8.6574 23.7764 8.6574 24.2233 8.83271 24.6245C9.62428 26.4374 11.2871 29.078 13.7733 31.2819C16.2702 33.5061 19.7074 35.3749 23.9999 35.3749C26.5393 35.3749 28.7758 34.7198 30.7043 33.7245Z" fill="black"/>
</g>
<defs>
<clipPath id="clip0_2_213">
<rect width="34" height="26" fill="white" transform="translate(7 11)"/>
</clipPath>
</defs>
</svg>
