<svg width="48" height="48" viewBox="0 0 48 48" fill="none" xmlns="http://www.w3.org/2000/svg">
<path d="M16.7484 7.07676C14.5555 7.41582 13.0406 8.81582 11.8703 11.5885C11.5477 12.3486 11.1594 13.4533 10.9953 14.0494C10.8641 14.5307 10.8531 14.6564 10.8531 15.69C10.8531 16.7346 10.8695 16.9041 11.0828 18.2494C11.2086 19.0424 11.3125 19.8572 11.318 20.0541C11.3234 20.333 11.1703 21.1314 10.6617 23.4557C10.2953 25.1236 10 26.5291 10 26.5729C10 26.7314 11.9031 27.8033 13.0898 28.3119C13.5711 28.5197 14.8234 28.99 14.8453 28.9682C14.8508 28.9572 14.6648 28.6346 14.4297 28.2408C14.1945 27.8525 14.0195 27.508 14.0414 27.4752C14.0633 27.4479 14.2328 27.2291 14.4187 26.9994C14.6047 26.7697 14.7578 26.5674 14.7578 26.5564C14.7578 26.54 14.6211 26.5729 14.457 26.6221C14.2383 26.6932 14.1289 26.7643 14.0359 26.901C13.7461 27.3221 13.2758 27.4533 12.8711 27.2182C12.6359 27.0814 12.4062 26.7096 12.4062 26.4635C12.4062 26.2666 12.625 25.8619 12.7945 25.7361C13.0078 25.583 13.4016 25.5502 13.6586 25.6705C13.8664 25.7635 13.8828 25.7635 14.3969 25.6104C14.7469 25.5064 14.9164 25.4299 14.8945 25.3861C14.8836 25.3479 14.7305 25.1346 14.5609 24.9049C14.3094 24.5713 14.2273 24.4947 14.1016 24.4947C13.9266 24.4947 13.6367 24.3088 13.4836 24.1064C13.1992 23.7236 13.3742 23.1002 13.8281 22.865C14.0961 22.7229 14.4516 22.7283 14.6758 22.876C14.7797 22.9471 14.8508 22.9361 15.2937 22.8104C15.5727 22.7338 15.7969 22.6518 15.7969 22.6354C15.7969 22.6135 15.6492 22.4057 15.4687 22.176C15.2008 21.8424 15.1078 21.7604 14.9875 21.7604C14.6812 21.7604 14.375 21.476 14.2656 21.0986C14.0961 20.508 14.7523 19.89 15.3648 20.0705C15.7477 20.1854 16.0539 20.6721 15.9828 21.0439C15.9609 21.1588 16.032 21.29 16.3984 21.7604C16.6445 22.0775 16.8523 22.34 16.8578 22.3455C16.8633 22.3564 17.1914 22.2744 17.5797 22.165C18.4328 21.9244 18.3945 21.9682 18.7937 20.7924C19.0945 19.901 19.4773 18.9494 19.9094 18.0307L20.1828 17.4455L20.0461 17.2104C19.5703 16.4064 18.7445 15.9033 17.8914 15.9088C17.6891 15.9088 17.082 16.0236 16.8633 16.1002C16.8031 16.1221 16.9398 16.0182 17.1695 15.865C17.957 15.3346 18.2852 14.8205 18.2797 14.1041C18.2742 13.5627 18.0937 13.0705 17.6727 12.4689C17.6125 12.3924 17.7984 12.4908 18.1484 12.7369C19.6797 13.7979 21.0086 14.5963 22.1734 15.1541C22.7312 15.4166 22.8898 15.4713 23.1359 15.4713H23.4312L23.5297 15.083C23.6609 14.5744 24.0328 13.8361 24.3664 13.4205C24.9352 12.7205 25.8812 12.108 26.7344 11.8893C26.9312 11.84 27.0953 11.7908 27.1062 11.7799C27.1391 11.7525 26.893 11.3041 26.6633 10.9596C26.3133 10.4455 25.4656 9.6416 24.8039 9.19864C23.5187 8.34551 21.7305 7.63457 19.8711 7.24629C18.657 6.98926 17.6453 6.93457 16.7484 7.07676Z" fill="#F4F4F4"/>
<path d="M27.3633 12.6822C26.1492 12.8627 25.0664 13.6666 24.5961 14.7275C24.4484 15.0611 24.2187 15.9744 24.2187 16.2314C24.2187 16.5486 24.175 16.5705 23.8086 16.4447C22.157 15.8869 20.5383 17.8885 19.357 21.9518L19.182 22.5533L17.8695 24.1666C17.1476 25.0525 16.2234 26.19 15.8187 26.6932L15.0804 27.601L15.4414 28.1807C17.0711 30.8221 19.2094 32.9603 21.8836 34.6283L22.4687 34.9947L22.9999 34.5C23.2344 29.3159 28.4999 26.6603 32.4999 28.651L33.9999 27.1908C33.9999 27.1908 36.6054 24.5166 36.9992 23.0182C37.1523 22.4221 37.1906 21.4705 37.0758 20.9127C36.7094 19.1299 35.5664 17.4018 33.439 15.4275C31.2406 13.3822 29.1133 12.4197 27.3633 12.6822ZM22.6875 24.0627C23.0976 24.2924 23.2508 24.8611 23.0101 25.2603L22.8953 25.4463L23.0211 26.1518C23.1086 26.633 23.1742 26.8682 23.2344 26.8955C23.2781 26.9228 23.6062 26.9939 23.9617 27.065L24.607 27.1908L24.8203 27.0705C25.482 26.6986 26.2531 27.2619 26.1109 28.0221C26.0617 28.2736 25.7719 28.5689 25.4875 28.651C25.1703 28.7494 24.8586 28.651 24.5906 28.3721C24.4047 28.1807 24.3336 28.1478 23.8906 28.0549C23.5133 27.9783 23.3984 27.9674 23.3984 28.0221C23.3984 28.0603 23.4367 28.2955 23.4859 28.5416C23.5625 28.9463 23.5898 29.0064 23.8086 29.2143C24.1859 29.5752 24.2133 30.0619 23.8742 30.4228C23.5023 30.8111 22.9937 30.8166 22.6054 30.4338C22.3867 30.215 22.3375 30.1932 21.8672 30.1057C21.5883 30.0564 21.3476 30.0291 21.3312 30.0455C21.3148 30.0619 21.3422 30.308 21.3914 30.5924C21.4789 31.0791 21.5008 31.1228 21.6976 31.3033C22.3047 31.8502 21.9383 32.8072 21.1234 32.8072C20.7953 32.8072 20.5383 32.6596 20.3687 32.3752C20.2211 32.1182 20.2265 31.7025 20.3906 31.4838L20.5164 31.3143L20.3851 30.5705L20.2539 29.8268L19.5265 29.6955L18.7937 29.5643L18.5804 29.69C17.9734 30.0291 17.2734 29.6353 17.2734 28.9518C17.2734 28.5853 17.432 28.3393 17.7765 28.1697C18.1484 27.9838 18.4219 28.0385 18.7445 28.3557C18.9687 28.5853 19.0125 28.6018 19.4992 28.6838C19.7836 28.733 20.0242 28.7603 20.0351 28.7494C20.0515 28.7385 20.0187 28.4978 19.975 28.2189C19.8875 27.7322 19.8711 27.6939 19.6523 27.4807C19.0562 26.9119 19.4336 25.9713 20.2539 25.9713C20.5054 25.9713 20.7242 26.0861 20.9211 26.3158C21.0578 26.4799 21.1289 26.5127 21.5554 26.5947C21.8234 26.6494 22.0531 26.6768 22.0695 26.6603C22.0859 26.6439 22.0586 26.4143 22.0094 26.1572C21.9219 25.7197 21.8945 25.6596 21.6758 25.4463C21.5172 25.2932 21.4242 25.151 21.4023 25.0197C21.2601 24.265 22.0258 23.6908 22.6875 24.0627Z" fill="#F4F4F4"/>
<path d="M20.9758 28.2244C21.0469 28.6236 21.1125 28.9518 21.118 28.9572C21.1562 28.9955 22.5289 29.2088 22.5617 29.1815C22.589 29.1486 22.4086 28.115 22.3265 27.8252C22.3101 27.765 22.1242 27.7104 21.6539 27.6229C21.293 27.5572 20.9648 27.5025 20.9265 27.5025C20.8609 27.5025 20.8664 27.6283 20.9758 28.2244Z" fill="#F4F4F4"/>
<path d="M15.7477 23.7072C15.4086 23.8057 15.1133 23.9041 15.0969 23.915C15.086 23.9314 15.2664 24.1994 15.5016 24.5166C15.8352 24.9705 15.9446 25.0799 15.9993 25.0307C16.1086 24.9432 16.836 24.0244 16.836 23.9752C16.836 23.8986 16.4969 23.5103 16.4368 23.5158C16.3985 23.5213 16.0922 23.6033 15.7477 23.7072Z" fill="#F4F4F4"/>
<path d="M29.994 29C26.682 29 24 31.688 24 35C24 38.312 26.682 41 29.994 41C33.312 41 36 38.312 36 35C36 31.688 33.312 29 29.994 29ZM32.538 38.6L30 37.07L27.462 38.6L28.134 35.714L25.896 33.776L28.848 33.524L30 30.8L31.152 33.518L34.104 33.77L31.866 35.708L32.538 38.6Z" fill="#F4F4F4"/>
</svg>
