<svg width="30" height="30" viewBox="0 0 40 40" fill="none" xmlns="http://www.w3.org/2000/svg">
<g clip-path="url(#clip0_66_384)">
<path d="M31.7149 2.96007L31.7151 2.96024C32.1161 3.26419 33.1293 4.22355 34.1498 5.24266C35.1687 6.26017 36.1319 7.27425 36.4432 7.6778C38.0658 9.79915 38.8479 12.1337 38.8479 14.8091C38.8479 15.4921 38.7874 16.4031 38.7122 16.8194L38.7114 16.8237C38.442 18.3929 37.7947 20.021 36.8609 21.4777L36.8606 21.4781C36.5025 22.038 36.3086 22.2565 34.3169 24.2927L34.3164 24.2931C32.9943 25.6485 31.8101 26.8097 31.2768 27.2684L31.2762 27.269C28.2601 29.872 24.9382 31.7498 21.2138 32.9552C21.2134 32.9554 21.2129 32.9555 21.2124 32.9557L20.3559 33.2275L13.0247 25.8963L5.62024 18.4918L5.63054 15.6395L5.63054 15.6394C5.64171 12.3656 5.71883 11.872 6.08216 11.1732C7.17887 9.0737 9.78923 8.37818 11.7733 9.63504C11.9422 9.74253 12.1339 9.89343 12.6081 10.3485C13.0817 10.8031 13.814 11.538 15.0614 12.7964M31.7149 2.96007L16.6466 3.66775C15.8943 4.34694 15.5407 4.81212 15.1281 5.62711L15.1264 5.63045C14.8854 6.09772 14.6208 6.99207 14.5604 7.51045L14.5572 7.54139L17.3392 10.3234C20.0648 13.049 20.3523 13.3407 20.6866 13.9142C21.3193 14.9741 21.5551 16.2449 21.3443 17.3859L21.3438 17.3886L21.3045 17.5947L21.9575 18.2562C21.9579 18.2566 21.9582 18.257 21.9586 18.2574C22.7166 19.0152 23.3738 19.511 24.0336 19.8206C24.6872 20.1274 25.3705 20.2642 26.1993 20.2642C27.7266 20.259 28.9791 19.7199 30.2107 18.4882L30.8184 17.8806L31.172 17.527L31.5255 17.8806L32.3541 18.7092L33.1828 19.5379L33.5363 19.8914L33.1828 20.245L32.5806 20.8471C31.7234 21.7043 31.0622 22.1899 30.0718 22.6909L30.071 22.6913C27.6369 23.9172 24.7633 23.9171 22.3184 22.6804C21.3378 22.19 20.6762 21.7037 19.8196 20.8471L19.5595 20.5871C19.3569 20.7464 19.0926 20.911 18.8366 21.0526C18.4843 21.2475 18.0817 21.4352 17.7566 21.535L17.7542 21.5357C17.3397 21.6608 16.7764 21.7145 16.2481 21.7145C15.7209 21.7145 15.1607 21.661 14.7543 21.5344L14.754 21.5343C14.1948 21.3598 13.7927 21.1919 13.2615 20.7837C12.7593 20.3978 12.1365 19.7932 11.1133 18.77L9.27374 16.9304L8.92019 16.5768L9.27374 16.2233L10.1024 15.3947L10.9255 14.5715L11.2759 14.2211L11.6295 14.5684L13.513 16.4188C13.5131 16.4189 13.5132 16.419 13.5132 16.419C14.4051 17.2943 14.8681 17.7462 15.1526 17.9976C15.4124 18.2272 15.4806 18.252 15.5774 18.2873L15.5809 18.2886C15.5811 18.2887 15.5814 18.2888 15.5816 18.2889C16.0113 18.4438 16.4198 18.4477 16.8421 18.3074C17.0176 18.2471 17.1087 18.2049 17.1885 18.1531C17.2731 18.0982 17.3675 18.018 17.5325 17.853C18.0853 17.3001 18.2326 16.6279 17.9703 15.9072M31.7149 2.96007C27.2357 -0.439051 20.874 -0.145823 16.6467 3.66763L31.7149 2.96007ZM15.0614 12.7964C15.0615 12.7965 15.0615 12.7966 15.0616 12.7967L15.4167 12.4447L15.0611 12.7962C15.0612 12.7963 15.0613 12.7963 15.0614 12.7964ZM15.0614 12.7964C16.4656 14.2172 17.1777 14.9405 17.5579 15.3544C17.7485 15.5621 17.8394 15.6746 17.8895 15.7477C17.929 15.8054 17.9439 15.8387 17.9703 15.9072M17.9703 15.9072C17.9699 15.9059 17.9694 15.9047 17.9689 15.9034L18.4385 15.7316L17.9718 15.9111C17.9713 15.9098 17.9708 15.9085 17.9703 15.9072Z" stroke="#010306"/>
<path d="M8.02137 27.71C8.39076 27.5001 8.97689 27.2532 9.48577 27.0861L7.20772 24.808L4.6555 22.2558L2.49551 24.4158L0.335525 26.5758L2.88774 29.128L5.16455 31.4048C5.32975 30.8865 5.57592 30.2973 5.7857 29.9334C5.99865 29.5634 6.39081 29.1079 6.78983 28.7118C7.18974 28.3147 7.64801 27.9261 8.01786 27.712L8.01785 27.712L8.02137 27.71Z" stroke="#010306"/>
<path d="M12.8345 30.5856L12.8345 30.5855C12.9272 30.6378 13.0982 30.7674 13.495 31.1391C13.8818 31.5015 14.4522 32.0635 15.3339 32.9453L15.3348 32.9461L17.2058 34.8078L15.0467 36.9669L12.8867 39.1269L11.0582 37.2984C10.3524 36.5926 9.79081 36.02 9.38814 35.5968C9.18661 35.385 9.02696 35.2128 8.9098 35.0813C8.78866 34.9453 8.73139 34.873 8.71497 34.8489C8.40026 34.3541 8.24847 33.8295 8.24359 33.1958L12.8345 30.5856ZM12.8345 30.5856L12.83 30.583M12.8345 30.5856L12.83 30.583M12.83 30.583C11.4809 29.8039 9.69056 30.1893 8.80378 31.444L8.80327 31.4447M12.83 30.583L8.80327 31.4447M8.80327 31.4447C8.40373 32.0079 8.23887 32.5246 8.24358 33.1956L8.80327 31.4447Z" stroke="#010306"/>
</g>
<defs>
<clipPath id="clip0_66_384">
<rect width="30" height="30" fill="white"/>
</clipPath>
</defs>
</svg>
