<svg width="30" height="30" viewBox="0 0 30 30" fill="none" xmlns="http://www.w3.org/2000/svg">
<g clip-path="url(#clip0_18_612)">
<path d="M23.7105 2.31967L23.7107 2.31984C24.0033 2.54162 24.7568 3.25445 25.5239 4.02049C26.2894 4.78491 27.0054 5.53935 27.2331 5.8345C28.4332 7.40343 29.0108 9.12752 29.0108 11.1069C29.0108 11.6159 28.9656 12.2907 28.911 12.5924L28.9103 12.5966C28.7112 13.7557 28.2324 14.9612 27.5403 16.0409L27.54 16.0413C27.28 16.4479 27.1454 16.6014 25.6482 18.1321L25.6477 18.1326C24.6556 19.1496 23.7712 20.0167 23.376 20.3566L23.3753 20.3571C21.1258 22.2986 18.6491 23.6986 15.8721 24.5974C15.8716 24.5976 15.8712 24.5977 15.8707 24.5979L15.3014 24.7785L9.85681 19.3339L4.34025 13.8173L4.34778 11.7301L4.34778 11.73C4.35619 9.26557 4.41674 8.9294 4.67235 8.43772C5.46108 6.92794 7.33671 6.42853 8.76283 7.33184C8.87852 7.4055 9.01501 7.51154 9.3694 7.85163L23.7105 2.31967ZM23.7105 2.31967C20.3997 -0.192805 15.6953 0.0230828 12.5687 2.84355L23.7105 2.31967ZM13.0762 11.6004C12.7931 11.2921 12.2612 10.7519 11.2071 9.68531L12.5685 2.84367C12.0151 3.34331 11.7596 3.68006 11.4575 4.27684L11.4575 4.27685L11.4558 4.28018C11.2878 4.60576 11.1004 5.23099 11.049 5.6105L13.0927 7.65419C15.1279 9.68943 15.3613 9.92433 15.6225 10.3722C16.1116 11.1917 16.2949 12.1753 16.131 13.0622L16.1305 13.0649L16.1134 13.155L16.5564 13.6038C16.5568 13.6042 16.5571 13.6046 16.5575 13.605C17.1201 14.1674 17.6012 14.5285 18.0782 14.7524C18.5491 14.9733 19.0428 15.0732 19.6493 15.0732C20.7581 15.0693 21.6666 14.6807 22.5695 13.7778L23.0253 13.3221L23.3788 12.9685L23.7324 13.3221L24.3539 13.9436L24.9754 14.565L25.3289 14.9186L24.9754 15.2722L24.5238 15.7238C23.8723 16.3752 23.3658 16.7475 22.6102 17.1298L22.6094 17.1302C20.7484 18.0674 18.5515 18.0673 16.6825 17.122C15.9339 16.7476 15.427 16.3746 14.7762 15.7238L14.6579 15.6055C14.5138 15.7094 14.3466 15.8111 14.1879 15.8989C13.9198 16.0472 13.6094 16.1924 13.354 16.2708L13.3517 16.2715C13.0241 16.3703 12.5879 16.4109 12.186 16.4109C11.7852 16.4109 11.3506 16.3706 11.0284 16.2702L11.0281 16.2701C10.5995 16.1363 10.2833 16.0047 9.86983 15.6869C9.48536 15.3915 9.01214 14.9316 8.24649 14.1659L6.8668 12.7862L6.51325 12.4327L6.8668 12.0791L7.48828 11.4576L8.10562 10.8403L8.45605 10.4899L8.80957 10.8372L10.2222 12.225C10.2223 12.225 10.2223 12.2251 10.2224 12.2252C10.8926 12.8829 11.2369 13.2188 11.4471 13.4046C11.6256 13.5623 11.6685 13.5777 11.7196 13.5959C11.7229 13.5971 11.7263 13.5983 11.7298 13.5996L11.5583 14.0692L11.728 13.5989C12.024 13.7057 12.3015 13.7083 12.5914 13.6121C12.7185 13.5685 12.7758 13.5408 12.8232 13.51C12.8753 13.4762 12.9387 13.4236 13.0609 13.3014C13.4411 12.9212 13.54 12.4684 13.3606 11.9743C13.343 11.9287 13.3358 11.9135 13.3138 11.8814C13.2816 11.8343 13.2184 11.7552 13.0762 11.6004Z" stroke="#010306"/>
<path d="M5.95416 20.6738C6.19246 20.5384 6.54593 20.3837 6.88445 20.2616L5.31728 18.6944L3.49151 16.8687L1.9599 18.4003L0.428298 19.9319L2.25407 21.7577L3.81907 23.3227C3.9402 22.9791 4.09479 22.6238 4.23062 22.3881C4.39864 22.096 4.7022 21.745 5.00418 21.4451C5.3069 21.1446 5.65952 20.8444 5.95064 20.6758L5.95064 20.6758L5.95416 20.6738Z" stroke="#010306"/>
<path d="M9.56445 23.0481L9.56447 23.0481C9.61911 23.0789 9.73737 23.1661 10.0357 23.4456C10.3241 23.7158 10.7505 24.1359 11.412 24.7974L11.4129 24.7983L12.7273 26.1061L11.1966 27.6369L9.66496 29.1685L8.38195 27.8854C7.85298 27.3565 7.43259 26.9278 7.1316 26.6115C6.98091 26.4531 6.86222 26.3251 6.77563 26.2279C6.7323 26.1792 6.69879 26.1403 6.67418 26.1104C6.65219 26.0837 6.64239 26.0703 6.64006 26.0671C6.41845 25.7178 6.31112 25.3482 6.30763 24.896L9.56445 23.0481ZM9.56445 23.0481L9.55994 23.0455M9.56445 23.0481L9.55994 23.0455M9.55994 23.0455C8.60309 22.493 7.33199 22.7678 6.70485 23.6552L6.70434 23.6559M9.55994 23.0455L6.70434 23.6559M6.70434 23.6559C6.41944 24.0575 6.30429 24.4196 6.30762 24.8958L6.70434 23.6559Z" stroke="#010306"/>
</g>
<defs>
<clipPath id="clip0_18_612">
<rect width="30" height="30" fill="white"/>
</clipPath>
</defs>
</svg>
