<svg width="30" height="30" viewBox="0 0 30 30" fill="none" xmlns="http://www.w3.org/2000/svg">
<g clip-path="url(#clip0_18_595)">
<path d="M24.0128 1.92136C20.5076 -0.738581 15.5358 -0.506562 12.2336 2.4724C11.637 3.01102 11.3428 3.39634 11.0114 4.05096C10.8084 4.44457 10.5971 5.16134 10.5473 5.59224L10.5266 5.79525L12.7391 8.00772C14.8107 10.0793 14.9723 10.2492 15.1919 10.6262C15.6228 11.3471 15.7802 12.2089 15.6393 12.9713L15.5731 13.3193L16.2028 13.9574C17.3753 15.1299 18.3159 15.5732 19.65 15.5732C20.9054 15.5691 21.937 15.1175 22.9231 14.1314L23.3788 13.6756L24.0003 14.2971L24.6218 14.9186L24.1702 15.3702C23.5529 15.9875 23.0888 16.3273 22.3845 16.6836C20.6651 17.5495 18.6349 17.5495 16.9072 16.6753C16.2111 16.3273 15.7471 15.9875 15.1297 15.3702L14.6781 14.9186L14.5414 15.0553C14.3135 15.2832 13.6257 15.6644 13.2073 15.7928C12.6852 15.9502 11.6826 15.9502 11.1771 15.7928C10.394 15.5484 10.1455 15.3578 8.60004 13.8124L7.22035 12.4327L7.84183 11.8112L8.45917 11.1938L9.872 12.5818C11.202 13.8869 11.2973 13.9739 11.5583 14.0692C11.9602 14.2142 12.3538 14.2184 12.7515 14.0858C13.0416 13.9864 13.1576 13.9118 13.4144 13.6549C13.9323 13.137 14.0774 12.4782 13.8288 11.7988C13.7252 11.5294 13.663 11.459 11.5624 9.33355C9.69385 7.44839 9.34996 7.11279 9.03093 6.90977C7.35708 5.84911 5.15289 6.43745 4.22896 8.2066C3.90579 8.82808 3.85607 9.3004 3.84778 11.7283L3.8395 14.0237L9.50326 19.6874L15.1629 25.347L16.0247 25.0736C18.8669 24.1538 21.4025 22.7202 23.702 20.7356C24.1163 20.3793 25.0154 19.4968 26.0056 18.4817C27.4889 16.9653 27.6671 16.7706 27.9612 16.3107C28.6863 15.1796 29.1918 13.9118 29.4031 12.6813C29.4652 12.3374 29.5108 11.6289 29.5108 11.1068C29.5108 9.01866 28.8976 7.18737 27.6298 5.53009C27.1284 4.8796 24.6632 2.4144 24.0128 1.92136Z" fill="#B11818"/>
<path d="M1.60635 18.0467L-0.278809 19.9319L1.90052 22.1112L4.07984 24.2905L4.12542 24.0626C4.19999 23.6732 4.46102 22.9896 4.66403 22.6374C4.93334 22.1692 5.72884 21.382 6.20116 21.1085C6.56576 20.9014 7.25354 20.6362 7.62642 20.5616L7.85016 20.5202L5.67083 18.3409L3.49151 16.1616L1.60635 18.0467Z" fill="#B11818"/>
<path d="M9.80997 22.6125C8.6333 21.933 7.07546 22.2645 6.29654 23.3666C5.95265 23.8513 5.80349 24.3154 5.80764 24.8996C5.81178 25.4423 5.94436 25.9064 6.22196 26.3414C6.33382 26.5113 6.96773 27.1783 8.02839 28.239L9.66496 29.8755L11.5501 27.9904L13.4353 26.1052L11.7656 24.4438C10.4439 23.1221 10.0378 22.7409 9.80997 22.6125Z" fill="#B11818"/>
</g>
<defs>
<clipPath id="clip0_18_595">
<rect width="30" height="30" fill="white"/>
</clipPath>
</defs>
</svg>
