<svg width="38" height="38" viewBox="0 0 38 38" fill="none" xmlns="http://www.w3.org/2000/svg">
<circle cx="19" cy="19" r="19" fill="#A41F1F"/>
<path d="M28.5 19.6088C28.5 24.8033 24.8844 28.5 19.5451 28.5C14.4258 28.5 10.2917 24.4325 10.2917 19.3958C10.2917 14.3592 14.4258 10.2917 19.5451 10.2917C22.0375 10.2917 24.1345 11.1911 25.7501 12.6742L23.2315 15.0567C19.9368 11.929 13.8102 14.2784 13.8102 19.3958C13.8102 22.5713 16.3885 25.1447 19.5451 25.1447C23.2091 25.1447 24.5822 22.5603 24.7986 21.2203H19.5451V18.089H28.3545C28.4403 18.5552 28.5 19.003 28.5 19.6088Z" fill="white"/>
</svg>
