<svg width="48" height="48" viewBox="0 0 48 48" fill="none" xmlns="http://www.w3.org/2000/svg">
<path d="M41.9906 23.9648C41.9906 25.2305 41.053 26.2219 39.9904 26.2219H37.9902L38.034 37.4859C38.034 37.6758 38.0215 37.8656 38.0027 38.0555V39.1875C38.0027 40.7414 36.8839 42 35.5025 42H34.5024C34.4337 42 34.3649 42 34.2962 41.993C34.2087 42 34.1211 42 34.0336 42H32.0022H30.5021C29.1207 42 28.0019 40.7414 28.0019 39.1875V37.5V33C28.0019 31.7555 27.108 30.75 26.0017 30.75H22.0014C20.895 30.75 20.0012 31.7555 20.0012 33V37.5V39.1875C20.0012 40.7414 18.8823 42 17.501 42H16.0008H14.0069C13.9132 42 13.8194 41.993 13.7257 41.9859C13.6507 41.993 13.5756 42 13.5006 42H12.5006C11.1192 42 10.0003 40.7414 10.0003 39.1875V31.3125C10.0003 31.2492 10.0003 31.1789 10.0066 31.1156V26.2219H8.00017C6.87507 26.2219 6 25.2375 6 23.9648C6 23.332 6.18752 22.7695 6.62505 22.2773L22.6514 6.5625C23.089 6.07031 23.589 6 24.0265 6C24.4641 6 24.9641 6.14062 25.3391 6.49219L41.303 22.2773C41.803 22.7695 42.0531 23.332 41.9906 23.9648Z" fill="black"/>
</svg>
