<svg width="48" height="48" viewBox="0 0 48 48" fill="none" xmlns="http://www.w3.org/2000/svg">
<path d="M41.493 23.9157L41.4906 23.9402V23.9648C41.4906 25.0028 40.7307 25.7219 39.9904 25.7219H37.9902H37.4883L37.4902 26.2238L37.534 37.4859C37.534 37.4862 37.534 37.4866 37.534 37.4869C37.5339 37.6549 37.5228 37.8271 37.5051 38.0063L37.5027 38.0308V38.0555V39.1875C37.5027 40.5222 36.554 41.5 35.5025 41.5H34.5024C34.4295 41.5 34.3862 41.4996 34.347 41.4956L34.3016 41.4909L34.2561 41.4946C34.1919 41.4997 34.1244 41.5 34.0336 41.5H32.0022H30.5021C29.4506 41.5 28.5019 40.5222 28.5019 39.1875V37.5V33C28.5019 31.5363 27.4379 30.25 26.0017 30.25H22.0014C20.5652 30.25 19.5012 31.5363 19.5012 33V37.5V39.1875C19.5012 40.5222 18.5525 41.5 17.501 41.5H16.0008H14.0069C13.935 41.5 13.86 41.4946 13.763 41.4873L13.721 41.4842L13.679 41.4881C13.6 41.4955 13.5483 41.5 13.5006 41.5H12.5006C11.449 41.5 10.5003 40.5222 10.5003 39.1875V31.3125C10.5003 31.2439 10.5008 31.1991 10.5042 31.1648L10.5066 31.1403V31.1156V26.2219V25.7219H10.0066H8.00017C7.20587 25.7219 6.5 25.0194 6.5 23.9648C6.5 23.4477 6.64724 23.0106 6.98796 22.6218L23.0015 6.91951L23.0137 6.90751L23.0251 6.8947C23.326 6.55625 23.6537 6.5 24.0265 6.5C24.3658 6.5 24.7309 6.60995 24.9928 6.85285L40.9514 22.6329L40.9523 22.6337C41.3708 23.0456 41.5374 23.4664 41.493 23.9157Z" stroke="#010306"/>
</svg>
