<svg width="48" height="48" viewBox="0 0 48 48" fill="none" xmlns="http://www.w3.org/2000/svg">
<path d="M25.7609 41.1686C30.6546 36.5171 38 25.2434 38 18.911C38 11.231 33.6118 5 23.5 5C13.3882 5 9 11.231 9 18.911C9 25.2434 16.3454 36.5171 21.2391 41.1686C22.4125 42.2771 24.5875 42.2771 25.7609 41.1686ZM23.5 24.7072C20.1326 24.7072 17.3947 21.4686 17.3947 18.911C17.3947 16.3534 20.1326 13.8876 23.5 13.8876C26.8674 13.8876 29.6053 16.3534 29.6053 18.911C29.6053 21.4686 26.8674 24.7072 23.5 24.7072Z" fill="black"/>
</svg>
