<svg width="48" height="48" viewBox="0 0 48 48" fill="none" xmlns="http://www.w3.org/2000/svg">
<path d="M6.60626 7.47338L6.60626 7.47337L6.60499 7.47149C6.47711 7.28159 6.46507 7.03749 6.57426 6.8347C6.68605 6.62708 6.89896 6.5 7.1254 6.5H16.1252C16.3277 6.5 16.5257 6.60396 16.646 6.77905C16.6464 6.77966 16.6468 6.78027 16.6472 6.78088L21.8906 14.6429C18.831 15.0678 16.0685 16.4111 13.8798 18.3806L6.60626 7.47338ZM41.395 7.47148L41.3937 7.47349L34.1205 18.3869C31.9362 16.4174 29.1688 15.0746 26.1091 14.6499L31.3557 6.77656C31.3557 6.77654 31.3557 6.77651 31.3558 6.77649C31.4723 6.60173 31.6663 6.5 31.8748 6.5H40.8746C41.1056 6.5 41.3143 6.6238 41.4239 6.83121C41.5364 7.04417 41.5221 7.28281 41.395 7.47148ZM22.9622 22.7287L22.961 22.7311L21.3872 25.9209C21.3871 25.9212 21.3869 25.9215 21.3868 25.9218C21.359 25.9768 21.3151 26.0023 21.2762 26.0075L21.2762 26.0075L21.2703 26.0083L17.7419 26.5214C17.7418 26.5215 17.7416 26.5215 17.7414 26.5215C16.7786 26.6595 16.4256 27.827 17.0935 28.495L17.0934 28.495L17.0979 28.4994L19.6473 30.9856C19.6888 31.0279 19.7042 31.0773 19.6958 31.1326C19.6957 31.1332 19.6956 31.1338 19.6955 31.1344L19.0917 34.6377L19.0916 34.6384C18.931 35.5776 19.9176 36.3078 20.772 35.862L20.7737 35.8611L23.9208 34.2032C23.9211 34.2031 23.9214 34.2029 23.9217 34.2028C23.9668 34.1798 24.0261 34.1798 24.0712 34.2028C24.0715 34.2029 24.0719 34.2031 24.0722 34.2032L27.2192 35.8611L27.221 35.862C28.0723 36.3062 29.0617 35.5882 28.9015 34.6394L28.9012 34.6377L28.297 31.1319C28.297 31.1316 28.2969 31.1313 28.2969 31.131C28.2891 31.0829 28.3046 31.0276 28.3457 30.9856L30.893 28.5013C30.8934 28.501 30.8938 28.5006 30.8941 28.5002C31.5941 27.8236 31.1924 26.6681 30.2573 26.5224L30.2573 26.5223L30.2524 26.5216L26.7298 26.0084L26.7298 26.0083L26.7238 26.0075C26.6832 26.0021 26.6359 25.9689 26.6161 25.9276L26.6161 25.9276L26.614 25.9233L25.0404 22.7339C25.0401 22.7334 25.0399 22.7329 25.0396 22.7324C24.615 21.8609 23.3896 21.8739 22.9622 22.7287ZM35.8747 29.625C35.8747 36.1832 30.5581 41.5 24 41.5C17.4419 41.5 12.1253 36.1832 12.1253 29.625C12.1253 23.0668 17.4419 17.75 24 17.75C30.5581 17.75 35.8747 23.0668 35.8747 29.625Z" stroke="#010306"/>
</svg>
