<svg width="48" height="48" viewBox="0 0 48 48" fill="none" xmlns="http://www.w3.org/2000/svg">
<path d="M8.03162 8H16.2814C16.623 8 16.9453 8.17402 17.1386 8.45762L22.3657 16.2951C19.1753 16.5594 16.3072 17.9451 14.1416 20.0527L7.17441 9.60488C6.96172 9.28906 6.94239 8.88301 7.12285 8.54785C7.30331 8.2127 7.65135 8 8.03162 8ZM39.8256 9.60488L32.8584 20.0592C30.6992 17.9516 27.8247 16.5658 24.6343 16.3016L29.8614 8.45762C30.0547 8.16758 30.377 8 30.7186 8H38.9684C39.3486 8 39.6967 8.20625 39.8772 8.54785C40.0576 8.88945 40.0383 9.28906 39.8256 9.60488ZM34.8435 29.6562C34.8435 35.9211 29.7647 41 23.5 41C17.2353 41 12.1565 35.9211 12.1565 29.6562C12.1565 23.3914 17.2353 18.3125 23.5 18.3125C29.7647 18.3125 34.8435 23.3914 34.8435 29.6562ZM24.0414 23.5396C23.8223 23.0885 23.1842 23.0885 22.9586 23.5396L21.5149 26.4658C21.4247 26.6463 21.2571 26.7688 21.0637 26.7945L17.8283 27.265C17.332 27.3359 17.1386 27.9418 17.4931 28.2963L19.8327 30.5779C19.9745 30.7197 20.039 30.9131 20.0067 31.1129L19.4524 34.3291C19.3687 34.8189 19.8843 35.1992 20.329 34.9672L23.2164 33.4461C23.3904 33.3559 23.6031 33.3559 23.7771 33.4461L26.6646 34.9672C27.1093 35.1992 27.6249 34.8254 27.5411 34.3291L26.9868 31.1129C26.9546 30.9195 27.0191 30.7197 27.1609 30.5779L29.5004 28.2963C29.8614 27.9482 29.6616 27.3424 29.1653 27.265L25.9363 26.7945C25.7429 26.7688 25.5689 26.6398 25.4851 26.4658L24.0414 23.5396Z" fill="black"/>
</svg>
