<svg width="28" height="35" viewBox="0 0 28 35" fill="none" xmlns="http://www.w3.org/2000/svg">
<g clip-path="url(#clip0_18_582)">
<path d="M6.74844 0.0767899C4.55547 0.415854 3.04062 1.81585 1.87031 4.58851C1.54766 5.34867 1.15937 6.45335 0.995312 7.04945C0.864062 7.5307 0.853125 7.65648 0.853125 8.69007C0.853125 9.7346 0.869531 9.90413 1.08281 11.2494C1.20859 12.0424 1.3125 12.8573 1.31797 13.0541C1.32344 13.333 1.17031 14.1315 0.661719 16.4557C0.295312 18.1237 0 19.5291 0 19.5729C0 19.7315 1.90312 20.8034 3.08984 21.3119C3.57109 21.5198 4.82344 21.9901 4.84531 21.9682C4.85078 21.9573 4.66484 21.6346 4.42969 21.2409C4.19453 20.8526 4.01953 20.508 4.04141 20.4752C4.06328 20.4479 4.23281 20.2291 4.41875 19.9994C4.60469 19.7698 4.75781 19.5674 4.75781 19.5565C4.75781 19.5401 4.62109 19.5729 4.45703 19.6221C4.23828 19.6932 4.12891 19.7643 4.03594 19.901C3.74609 20.3221 3.27578 20.4534 2.87109 20.2182C2.63594 20.0815 2.40625 19.7096 2.40625 19.4635C2.40625 19.2666 2.625 18.8619 2.79453 18.7362C3.00781 18.583 3.40156 18.5502 3.65859 18.6705C3.86641 18.7635 3.88281 18.7635 4.39687 18.6104C4.74687 18.5065 4.91641 18.4299 4.89453 18.3862C4.88359 18.3479 4.73047 18.1346 4.56094 17.9049C4.30937 17.5713 4.22734 17.4948 4.10156 17.4948C3.92656 17.4948 3.63672 17.3088 3.48359 17.1065C3.19922 16.7237 3.37422 16.1002 3.82812 15.8651C4.09609 15.7229 4.45156 15.7284 4.67578 15.876C4.77969 15.9471 4.85078 15.9362 5.29375 15.8104C5.57266 15.7338 5.79687 15.6518 5.79687 15.6354C5.79687 15.6135 5.64922 15.4057 5.46875 15.176C5.20078 14.8424 5.10781 14.7604 4.9875 14.7604C4.68125 14.7604 4.375 14.476 4.26562 14.0987C4.09609 13.508 4.75234 12.8901 5.36484 13.0705C5.74766 13.1854 6.05391 13.6721 5.98281 14.044C5.96094 14.1588 6.03203 14.2901 6.39844 14.7604C6.64453 15.0776 6.85234 15.3401 6.85781 15.3455C6.86328 15.3565 7.19141 15.2744 7.57969 15.1651C8.43281 14.9244 8.39453 14.9682 8.79375 13.7924C9.09453 12.901 9.47734 11.9494 9.90937 11.0307L10.1828 10.4455L10.0461 10.2104C9.57031 9.40648 8.74453 8.90335 7.89141 8.90882C7.68906 8.90882 7.08203 9.02366 6.86328 9.10023C6.80312 9.1221 6.93984 9.0182 7.16953 8.86507C7.95703 8.3346 8.28516 7.82054 8.27969 7.10413C8.27422 6.56273 8.09375 6.07054 7.67266 5.46898C7.6125 5.39242 7.79844 5.49085 8.14844 5.73695C9.67969 6.79788 11.0086 7.59632 12.1734 8.15413C12.7312 8.41663 12.8898 8.47132 13.1359 8.47132H13.4312L13.5297 8.08304C13.6609 7.57445 14.0328 6.83617 14.3664 6.42054C14.9352 5.72054 15.8812 5.10804 16.7344 4.88929C16.9312 4.84007 17.0953 4.79085 17.1062 4.77991C17.1391 4.75257 16.893 4.30413 16.6633 3.9596C16.3133 3.44554 15.4656 2.64163 14.8039 2.19867C13.5187 1.34554 11.7305 0.634604 9.87109 0.246323C8.65703 -0.0107098 7.64531 -0.0653973 6.74844 0.0767899Z" fill="#010306"/>
<path d="M17.3634 5.68225C16.1493 5.86272 15.0665 6.66663 14.5962 7.72756C14.4485 8.06116 14.2188 8.97444 14.2188 9.23147C14.2188 9.54866 14.1751 9.57053 13.8087 9.44475C12.1571 8.88694 10.5384 10.8885 9.35713 14.9518L9.18213 15.5533L7.86963 17.1666C7.14775 18.0526 6.22354 19.1901 5.81885 19.6932L5.08057 20.601L5.4415 21.1807C7.07119 23.8221 9.20947 25.9604 11.8837 27.6283L12.4688 27.9948L13 27.5C13.2345 22.3159 18.5 19.6604 22.5 21.651L24 20.1908C24 20.1908 26.6056 17.5166 26.9993 16.0182C27.1524 15.4221 27.1907 14.4705 27.0759 13.9127C26.7095 12.1299 25.5665 10.4018 23.4392 8.42756C21.2407 6.38225 19.1134 5.41975 17.3634 5.68225ZM12.6876 17.0627C13.0978 17.2924 13.2509 17.8612 13.0103 18.2604L12.8954 18.4463L13.0212 19.1518C13.1087 19.633 13.1743 19.8682 13.2345 19.8955C13.2782 19.9229 13.6063 19.994 13.9618 20.0651L14.6071 20.1908L14.8204 20.0705C15.4821 19.6987 16.2532 20.2619 16.111 21.0221C16.0618 21.2737 15.772 21.569 15.4876 21.651C15.1704 21.7494 14.8587 21.651 14.5907 21.3721C14.4048 21.1807 14.3337 21.1479 13.8907 21.0549C13.5134 20.9783 13.3985 20.9674 13.3985 21.0221C13.3985 21.0604 13.4368 21.2955 13.486 21.5416C13.5626 21.9463 13.5899 22.0065 13.8087 22.2143C14.186 22.5752 14.2134 23.0619 13.8743 23.4229C13.5024 23.8112 12.9938 23.8166 12.6056 23.4338C12.3868 23.2151 12.3376 23.1932 11.8673 23.1057C11.5884 23.0565 11.3478 23.0291 11.3313 23.0455C11.3149 23.0619 11.3423 23.308 11.3915 23.5924C11.479 24.0791 11.5009 24.1229 11.6978 24.3033C12.3048 24.8502 11.9384 25.8073 11.1235 25.8073C10.7954 25.8073 10.5384 25.6596 10.3688 25.3752C10.2212 25.1182 10.2267 24.7026 10.3907 24.4838L10.5165 24.3143L10.3853 23.5705L10.254 22.8268L9.52666 22.6955L8.79385 22.5643L8.58057 22.6901C7.97354 23.0291 7.27354 22.6354 7.27354 21.9518C7.27354 21.5854 7.43213 21.3393 7.77666 21.1698C8.14854 20.9838 8.42197 21.0385 8.74463 21.3557C8.96885 21.5854 9.0126 21.6018 9.49932 21.6838C9.78369 21.733 10.0243 21.7604 10.0353 21.7494C10.0517 21.7385 10.0188 21.4979 9.9751 21.219C9.8876 20.7323 9.87119 20.694 9.65244 20.4807C9.05635 19.9119 9.43369 18.9713 10.254 18.9713C10.5056 18.9713 10.7243 19.0862 10.9212 19.3158C11.0579 19.4799 11.129 19.5127 11.5556 19.5948C11.8235 19.6494 12.0532 19.6768 12.0696 19.6604C12.086 19.644 12.0587 19.4143 12.0095 19.1573C11.922 18.7198 11.8946 18.6596 11.6759 18.4463C11.5173 18.2932 11.4243 18.151 11.4024 18.0198C11.2603 17.2651 12.0259 16.6908 12.6876 17.0627Z" fill="#010306"/>
<path d="M10.9759 21.2245C11.047 21.6237 11.1126 21.9518 11.1181 21.9573C11.1564 21.9955 12.529 22.2088 12.5618 22.1815C12.5892 22.1487 12.4087 21.1151 12.3267 20.8252C12.3103 20.7651 12.1243 20.7104 11.654 20.6229C11.2931 20.5573 10.9649 20.5026 10.9267 20.5026C10.861 20.5026 10.8665 20.6284 10.9759 21.2245Z" fill="#010306"/>
<path d="M5.74769 16.7072C5.40863 16.8057 5.11331 16.9041 5.09691 16.915C5.08597 16.9314 5.26644 17.1994 5.5016 17.5166C5.83519 17.9705 5.94456 18.0799 5.99925 18.0307C6.10863 17.9432 6.83597 17.0244 6.83597 16.9752C6.83597 16.8986 6.49691 16.5103 6.43675 16.5158C6.39847 16.5213 6.09222 16.6033 5.74769 16.7072Z" fill="#010306"/>
</g>
<path d="M20 22.1676C16.688 22.1676 14 24.8556 14 28.1676C14 31.4796 16.688 34.1676 20 34.1676C23.312 34.1676 26 31.4796 26 28.1676C26 24.8556 23.312 22.1676 20 22.1676ZM23 28.7676H20.6V31.1676H19.4V28.7676H17V27.5676H19.4V25.1676H20.6V27.5676H23V28.7676Z" fill="#010306"/>
<defs>
<clipPath id="clip0_18_582">
<rect width="28" height="28" fill="white"/>
</clipPath>
</defs>
</svg>
