<svg width="48" height="48" viewBox="0 0 48 48" fill="none" xmlns="http://www.w3.org/2000/svg">
<g clip-path="url(#clip0_233_3417)">
<path d="M33.638 27.4641C31.998 27.4641 30.4113 27.1974 28.9313 26.7174C28.4647 26.5574 27.9447 26.6774 27.5847 27.0374L25.4913 29.6641C21.718 27.8641 18.1847 24.4641 16.3047 20.5574L18.9047 18.3441C19.2647 17.9707 19.3713 17.4507 19.2247 16.9841C18.7313 15.5041 18.478 13.9174 18.478 12.2774C18.478 11.5574 17.878 10.9574 17.158 10.9574L12.5447 10.9574C11.8247 10.9574 10.958 11.2774 10.958 12.2774C10.958 24.6641 21.2647 34.9574 33.638 34.9574C34.5847 34.9574 34.958 34.1174 34.958 33.3841V28.7841C34.958 28.0641 34.358 27.4641 33.638 27.4641Z" fill="#010306"/>
</g>
<defs>
<clipPath id="clip0_233_3417">
<rect width="48" height="48" fill="white"/>
</clipPath>
</defs>
</svg>
