<svg width="48" height="48" viewBox="0 0 48 48" fill="none" xmlns="http://www.w3.org/2000/svg">
<path d="M23.4294 25.5997C23.6617 25.3671 24.0618 25.3671 24.2942 25.5997L27.6071 28.9166C28.2181 29.5283 29.0313 29.8643 29.8918 29.8643H30.5415L26.3637 34.0469C25.06 35.3177 22.9432 35.3177 21.6395 34.0469L17.4445 29.8513H17.8447C18.7052 29.8513 19.5183 29.5153 20.1293 28.9037L23.4294 25.5997ZM24.2942 22.4293C24.0188 22.6662 23.666 22.6706 23.4294 22.4293L20.1293 19.1254C19.5183 18.4749 18.7052 18.1777 17.8447 18.1777H17.4445L21.6352 13.9804C22.9432 12.6732 25.06 12.6732 26.3637 13.9804L30.5458 18.1648H29.8918C29.0313 18.1648 28.2181 18.5008 27.6071 19.1125L24.2942 22.4293ZM17.8447 19.1469C18.4384 19.1469 18.9848 19.3882 19.4409 19.8103L22.741 23.1142C23.0507 23.3856 23.4552 23.5795 23.8639 23.5795C24.2684 23.5795 24.6728 23.3856 24.9826 23.1142L28.2955 19.7974C28.7172 19.3795 29.298 19.1383 29.8918 19.1383H31.5139L34.0222 21.6497C35.3259 22.9549 35.3259 25.0742 34.0222 26.3794L31.5139 28.8907H29.8918C29.298 28.8907 28.7172 28.6495 28.2955 28.2274L24.9826 24.9105C24.3845 24.3118 23.339 24.3118 22.741 24.9148L19.4409 28.2144C18.9848 28.6366 18.4384 28.8778 17.8447 28.8778H16.4756L13.9792 26.3794C12.6736 25.0742 12.6736 22.9549 13.9792 21.6497L16.4756 19.1469H17.8447Z" fill="#010306"/>
</svg>
