<svg width="48" height="48" viewBox="0 0 48 48" fill="none" xmlns="http://www.w3.org/2000/svg">
<path d="M32 15C32 19.4202 28.4202 23 24 23C19.5798 23 16 19.4202 16 15C16 10.5798 19.5798 7 24 7C28.4202 7 32 10.5798 32 15ZM7 37.5C7 36.371 7.5576 35.3081 8.64592 34.3037C9.74103 33.293 11.3056 32.4104 13.1191 31.6839C16.7477 30.2303 21.1213 29.5 24 29.5C26.8787 29.5 31.2523 30.2303 34.8809 31.6839C36.6944 32.4104 38.259 33.293 39.3541 34.3037C40.4424 35.3081 41 36.371 41 37.5V41H7V37.5Z" stroke="#F4F4F4" stroke-width="2"/>
</svg>
