<svg width="48" height="48" viewBox="0 0 48 48" fill="none" xmlns="http://www.w3.org/2000/svg">
<g clip-path="url(#clip0_225_1569)">
<path d="M31.6462 24.9792C31.689 24.6667 31.7104 24.3438 31.7104 24C31.7104 23.6667 31.689 23.3333 31.6355 23.0208L33.8094 21.375C34.0021 21.2292 34.0557 20.9479 33.9379 20.7396L31.8818 17.2812C31.7533 17.0521 31.4855 16.9792 31.2499 17.0521L28.6905 18.0521C28.1551 17.6562 27.5875 17.3229 26.9557 17.0729L26.5701 14.4271C26.5273 14.1771 26.3131 14 26.0561 14H21.9439C21.6869 14 21.4834 14.1771 21.4406 14.4271L21.055 17.0729C20.4232 17.3229 19.8449 17.6667 19.3202 18.0521L16.7608 17.0521C16.5252 16.9687 16.2574 17.0521 16.1289 17.2812L14.0835 20.7396C13.955 20.9583 13.9979 21.2292 14.212 21.375L16.3859 23.0208C16.3324 23.3333 16.2896 23.6771 16.2896 24C16.2896 24.3229 16.311 24.6667 16.3645 24.9792L14.1906 26.625C13.9979 26.7708 13.9443 27.0521 14.0621 27.2604L16.1182 30.7188C16.2467 30.9479 16.5145 31.0208 16.7501 30.9479L19.3095 29.9479C19.8449 30.3437 20.4125 30.6771 21.0443 30.9271L21.4299 33.5729C21.4834 33.8229 21.6869 34 21.9439 34H26.0561C26.3131 34 26.5273 33.8229 26.5594 33.5729L26.945 30.9271C27.5768 30.6771 28.1551 30.3437 28.6798 29.9479L31.2392 30.9479C31.4748 31.0312 31.7426 30.9479 31.8711 30.7188L33.9272 27.2604C34.0557 27.0312 34.0021 26.7708 33.7987 26.625L31.6462 24.9792ZM24 27.75C21.8796 27.75 20.1448 26.0625 20.1448 24C20.1448 21.9375 21.8796 20.25 24 20.25C26.1204 20.25 27.8552 21.9375 27.8552 24C27.8552 26.0625 26.1204 27.75 24 27.75Z" fill="#F4F4F4"/>
</g>
<defs>
<clipPath id="clip0_225_1569">
<rect width="48" height="48" fill="white"/>
</clipPath>
</defs>
</svg>
