<svg width="48" height="48" viewBox="0 0 48 48" fill="none" xmlns="http://www.w3.org/2000/svg">
<path d="M24 15C19.0312 15 15 19.0312 15 24C15 28.9688 19.0312 33 24 33C24.8297 33 25.5 33.6703 25.5 34.5C25.5 35.3297 24.8297 36 24 36C17.3719 36 12 30.6281 12 24C12 17.3719 17.3719 12 24 12C30.6281 12 36 17.3719 36 24V25.5C36 27.9844 33.9844 30 31.5 30C30.1266 30 28.8937 29.3813 28.0687 28.4109C27 29.3953 25.5703 30 24 30C20.6859 30 18 27.3141 18 24C18 20.6859 20.6859 18 24 18C25.3078 18 26.5172 18.4172 27.5016 19.1297C27.7688 18.8953 28.1156 18.75 28.5 18.75C29.3297 18.75 30 19.4203 30 20.25V24V25.5C30 26.3297 30.6703 27 31.5 27C32.3297 27 33 26.3297 33 25.5V24C33 19.0312 28.9688 15 24 15ZM27 24C27 23.2044 26.6839 22.4413 26.1213 21.8787C25.5587 21.3161 24.7956 21 24 21C23.2044 21 22.4413 21.3161 21.8787 21.8787C21.3161 22.4413 21 23.2044 21 24C21 24.7956 21.3161 25.5587 21.8787 26.1213C22.4413 26.6839 23.2044 27 24 27C24.7956 27 25.5587 26.6839 26.1213 26.1213C26.6839 25.5587 27 24.7956 27 24Z" fill="#010306"/>
</svg>
