<svg width="48" height="48" viewBox="0 0 48 48" fill="none" xmlns="http://www.w3.org/2000/svg">
<g clip-path="url(#clip0_2_208)">
<path d="M24 12.125C16.0833 12.125 9.32251 17.0492 6.58334 24C9.32251 30.9508 16.0833 35.875 24 35.875C31.9167 35.875 38.6775 30.9508 41.4167 24C38.6775 17.0492 31.9167 12.125 24 12.125ZM24 31.9167C19.63 31.9167 16.0833 28.37 16.0833 24C16.0833 19.63 19.63 16.0833 24 16.0833C28.37 16.0833 31.9167 19.63 31.9167 24C31.9167 28.37 28.37 31.9167 24 31.9167ZM24 19.25C21.3717 19.25 19.25 21.3717 19.25 24C19.25 26.6283 21.3717 28.75 24 28.75C26.6283 28.75 28.75 26.6283 28.75 24C28.75 21.3717 26.6283 19.25 24 19.25Z" fill="#010306"/>
</g>
<defs>
<clipPath id="clip0_2_208">
<rect width="38" height="38" fill="white" transform="translate(5 5)"/>
</clipPath>
</defs>
</svg>
