<svg width="48" height="48" viewBox="0 0 48 48" fill="none" xmlns="http://www.w3.org/2000/svg">
<path d="M31.5551 16.1969C29.404 14.1344 26.5393 13 23.4949 13C17.2109 13 12.0975 17.8911 12.0975 23.9018C12.0975 25.8219 12.6212 27.6978 13.6172 29.3527L12 35L18.0426 33.4826C19.706 34.3518 21.5799 34.8085 23.4897 34.8085H23.4949C29.7737 34.8085 35 29.9174 35 23.9067C35 20.9946 33.7063 18.2594 31.5551 16.1969ZM23.4949 32.9719C21.7904 32.9719 20.1219 32.5348 18.669 31.7098L18.325 31.5134L14.7415 32.4121L15.6964 29.0679L15.4705 28.7241C14.5208 27.2804 14.0228 25.6156 14.0228 23.9018C14.0228 18.9076 18.2737 14.8415 23.5 14.8415C26.031 14.8415 28.408 15.7844 30.1946 17.4982C31.9813 19.2121 33.0799 21.4857 33.0748 23.9067C33.0748 28.9058 28.7161 32.9719 23.4949 32.9719ZM28.6904 26.1853C28.408 26.0478 27.0065 25.3897 26.7446 25.3013C26.4828 25.208 26.2929 25.1638 26.1029 25.4388C25.9129 25.7138 25.3688 26.3228 25.1993 26.5094C25.035 26.6911 24.8656 26.7156 24.5833 26.5781C22.9096 25.7777 21.8109 25.1491 20.7071 23.3371C20.4145 22.8558 20.9998 22.8902 21.544 21.8491C21.6364 21.6674 21.5902 21.5103 21.5183 21.3728C21.4464 21.2353 20.8766 19.8946 20.6404 19.3496C20.4094 18.8192 20.1732 18.8929 19.9987 18.883C19.8344 18.8732 19.6444 18.8732 19.4545 18.8732C19.2645 18.8732 18.9565 18.942 18.6946 19.2121C18.4328 19.4871 17.6987 20.1451 17.6987 21.4857C17.6987 22.8263 18.7203 24.1228 18.8589 24.3045C19.0027 24.4862 20.8663 27.2362 23.7259 28.4196C25.533 29.1661 26.2415 29.2299 27.1451 29.1022C27.6944 29.0237 28.829 28.4442 29.0652 27.8058C29.3013 27.1674 29.3013 26.6223 29.2295 26.5094C29.1627 26.3866 28.9728 26.3179 28.6904 26.1853Z" fill="#010306"/>
</svg>
